<svg width="109" height="40" viewBox="0 0 109 40" fill="none" xmlns="http://www.w3.org/2000/svg">
<path d="M28.2193 12.296L20.2623 23.57H20.234V12.296H20.2219H18.6031H18.593V23.57H18.5647L10.6057 12.296H8.58112L8.5791 26H10.1798V14.464H10.2181L18.4396 25.988H20.3854L28.6068 14.464H28.6472V25.988H30.2761V12.296H28.2193Z" fill="#1A1A1B"/>
<path d="M19.412 2.00002C28.899 2.00002 36.6078 9.68802 36.6078 19.136C36.6078 28.584 28.893 36.272 19.412 36.272C9.93102 36.272 2.22028 28.6 2.22028 19.142C2.22028 9.68402 9.93102 2.00002 19.412 2.00002ZM19.412 0.400024C9.02471 0.400024 0.605469 8.80002 0.605469 19.142C0.605469 29.484 9.02471 37.884 19.412 37.884C29.7993 37.884 38.2206 29.494 38.2206 19.142C38.2206 8.79002 29.7993 0.400024 19.412 0.400024Z" fill="#1A1A1B"/>
<path d="M99.7144 13.572C100.827 13.5668 101.916 13.889 102.844 14.4977C103.771 15.1064 104.495 15.9742 104.925 16.9911C105.354 18.0081 105.469 19.1284 105.255 20.2102C105.042 21.292 104.508 22.2866 103.724 23.0679C102.939 23.8492 101.937 24.3821 100.847 24.599C99.7558 24.816 98.6246 24.7072 97.5962 24.2866C96.5679 23.8659 95.6886 23.1523 95.07 22.2361C94.4513 21.3199 94.1211 20.2423 94.1211 19.14C94.1184 17.6669 94.706 16.2531 95.7548 15.2091C96.8035 14.165 98.2277 13.5762 99.7144 13.572V13.572ZM99.7144 11.972C98.2824 11.9621 96.8797 12.3737 95.6842 13.1547C94.4886 13.9356 93.5541 15.0508 92.999 16.3587C92.4438 17.6666 92.2932 19.1084 92.5661 20.5012C92.8391 21.8941 93.5233 23.1753 94.532 24.1823C95.5408 25.1894 96.8286 25.877 98.2322 26.158C99.6359 26.4389 101.092 26.3006 102.416 25.7604C103.74 25.2203 104.873 24.3028 105.67 23.1241C106.467 21.9455 106.893 20.5588 106.894 19.14C106.9 17.2468 106.147 15.4288 104.801 14.0855C103.455 12.7421 101.625 11.9834 99.7144 11.976V11.972Z" fill="#1A1A1B"/>
<path d="M68.5686 13.572C69.6813 13.5664 70.7705 13.8883 71.6983 14.4967C72.6262 15.1052 73.3509 15.9728 73.7805 16.9897C74.2102 18.0067 74.3255 19.1271 74.1119 20.209C73.8983 21.2909 73.3653 22.2857 72.5805 23.0672C71.7957 23.8487 70.7945 24.3817 69.7036 24.5989C68.6128 24.816 67.4814 24.7074 66.453 24.2868C65.4245 23.8662 64.5451 23.1525 63.9264 22.2363C63.3076 21.32 62.9773 20.2424 62.9773 19.14C62.9746 17.6673 63.562 16.2538 64.6103 15.2098C65.6586 14.1658 67.0823 13.5768 68.5686 13.572V13.572ZM68.5686 11.972C67.137 11.9637 65.7351 12.3767 64.5406 13.1586C63.3461 13.9405 62.4128 15.0562 61.8589 16.3643C61.305 17.6724 61.1556 19.1139 61.4294 20.5062C61.7033 21.8985 62.3881 23.179 63.3972 24.1853C64.4063 25.1915 65.6941 25.8783 67.0975 26.1586C68.501 26.4389 69.9568 26.3001 71.2805 25.7597C72.6042 25.2194 73.7362 24.3018 74.5331 23.1233C75.3299 21.9449 75.7557 20.5585 75.7566 19.14C75.7595 18.2019 75.5759 17.2725 75.2162 16.4047C74.8565 15.537 74.3278 14.7479 73.6604 14.0827C72.9929 13.4174 72.1996 12.8889 71.326 12.5275C70.4523 12.166 69.5154 11.9786 68.5686 11.976V11.972Z" fill="#1A1A1B"/>
<path d="M44.4639 12.298H46.8861L51.5448 23.032H51.5832L56.2803 12.298H58.646V26H57.017V14.504H56.9787L52.0535 26H51.0685L46.1332 14.504H46.0948V26H44.4639V12.298Z" fill="#1A1A1B"/>
<path d="M78.585 12.298H80.6418L88.5988 23.67H88.6372V12.298H90.2661V26H88.2093L80.2523 14.62H80.2139V26H78.585V12.298Z" fill="#1A1A1B"/>
</svg>
